<svg xmlns="http://www.w3.org/2000/svg" xmlns:xlink="http://www.w3.org/1999/xlink" width="170" zoomAndPan="magnify" viewBox="0 0 127.5 56.249996" height="75" preserveAspectRatio="xMidYMid meet" version="1.0"><defs><g/><clipPath id="bdb992f34a"><path d="M 0.59375 0 L 126.414062 0 L 126.414062 55.511719 L 0.59375 55.511719 Z M 0.59375 0 " clip-rule="nonzero"/></clipPath><clipPath id="2160cc2825"><path d="M 3.191406 8.082031 L 42.574219 8.082031 L 42.574219 43.746094 L 3.191406 43.746094 Z M 3.191406 8.082031 " clip-rule="nonzero"/></clipPath></defs><g clip-path="url(#bdb992f34a)"><path fill="#ffffff" d="M 0.59375 0 L 126.90625 0 L 126.90625 63.15625 L 0.59375 63.15625 Z M 0.59375 0 " fill-opacity="1" fill-rule="nonzero"/><path fill="#ffffff" d="M 0.59375 0 L 126.90625 0 L 126.90625 55.726562 L 0.59375 55.726562 Z M 0.59375 0 " fill-opacity="1" fill-rule="nonzero"/><path fill="#ffffff" d="M 0.59375 0 L 126.90625 0 L 126.90625 55.726562 L 0.59375 55.726562 Z M 0.59375 0 " fill-opacity="1" fill-rule="nonzero"/></g><g clip-path="url(#2160cc2825)"><path fill="#ffffff" d="M 4.875 24.535156 C 5.804688 24.535156 6.558594 25.292969 6.558594 26.226562 C 6.558594 27.160156 5.804688 27.917969 4.875 27.917969 C 3.945312 27.917969 3.191406 27.160156 3.191406 26.226562 C 3.191406 25.292969 3.945312 24.535156 4.875 24.535156 M 5.945312 15.015625 C 6.738281 15.015625 7.382812 15.660156 7.382812 16.460938 C 7.382812 17.257812 6.738281 17.90625 5.945312 17.90625 C 5.152344 17.90625 4.507812 17.257812 4.507812 16.460938 C 4.507812 15.660156 5.152344 15.015625 5.945312 15.015625 Z M 12.117188 19.398438 C 13.367188 19.398438 14.382812 20.421875 14.382812 21.679688 C 14.382812 22.9375 13.367188 23.957031 12.117188 23.957031 C 10.867188 23.957031 9.851562 22.9375 9.851562 21.679688 C 9.855469 20.421875 10.867188 19.398438 12.117188 19.398438 Z M 14.734375 10.628906 C 15.890625 10.628906 16.832031 11.574219 16.832031 12.738281 C 16.832031 13.902344 15.890625 14.847656 14.734375 14.847656 C 13.578125 14.847656 12.640625 13.902344 12.640625 12.738281 C 12.640625 11.574219 13.578125 10.628906 14.734375 10.628906 Z M 27.140625 12.113281 L 31.273438 18.214844 L 31.441406 18.214844 C 33.519531 18.214844 35.207031 19.910156 35.207031 22.003906 C 35.207031 24.097656 33.519531 25.796875 31.441406 25.796875 C 30.460938 25.796875 29.539062 25.414062 28.84375 24.753906 L 26.582031 25.578125 C 26.347656 26.386719 25.796875 27.054688 25.074219 27.449219 C 25.667969 27.644531 26.1875 28.027344 26.558594 28.539062 L 29.390625 28.527344 C 29.9375 27.808594 30.789062 27.371094 31.71875 27.371094 C 33.332031 27.371094 34.644531 28.691406 34.644531 30.316406 C 34.644531 31.941406 33.332031 33.261719 31.71875 33.261719 C 30.796875 33.261719 29.945312 32.828125 29.398438 32.117188 L 26.53125 32.128906 C 26.078125 32.738281 25.410156 33.15625 24.660156 33.292969 L 23.589844 35.601562 C 23.710938 35.917969 23.773438 36.253906 23.773438 36.601562 C 23.773438 37.488281 23.359375 38.28125 22.714844 38.792969 C 24.570312 39.324219 26.234375 40.414062 27.472656 41.941406 L 33.578125 41.941406 L 35.792969 37.550781 C 38.839844 36.78125 40.988281 36.890625 39.882812 33.164062 C 40.867188 32.214844 41.472656 31.871094 40.367188 31.046875 C 40.828125 30.804688 40.972656 30.574219 41.039062 30.253906 L 40.238281 28.730469 C 41.839844 27.808594 42.574219 26.886719 42.007812 26.226562 L 38.355469 22.007812 C 37.734375 14.320312 32.730469 10.832031 27.367188 10.535156 C 27.371094 10.621094 27.375 10.707031 27.375 10.796875 C 27.375 11.25 27.292969 11.695312 27.140625 12.113281 Z M 26.285156 10.519531 C 26.148438 9.152344 25 8.085938 23.605469 8.085938 C 22.117188 8.085938 20.914062 9.300781 20.914062 10.796875 C 20.914062 11.089844 20.960938 11.371094 21.046875 11.632812 C 21.394531 12.71875 22.410156 13.503906 23.605469 13.503906 C 24.058594 13.503906 24.480469 13.394531 24.855469 13.199219 L 29.527344 20.097656 C 29.046875 20.585938 28.746094 21.261719 28.746094 22.003906 L 28.75 22.117188 L 25.195312 23.414062 C 24.824219 22.941406 24.246094 22.636719 23.597656 22.636719 C 22.472656 22.636719 21.554688 23.554688 21.554688 24.6875 C 21.554688 25.820312 22.472656 26.738281 23.597656 26.738281 C 24.695312 26.738281 25.589844 25.867188 25.632812 24.773438 L 29.183594 23.480469 C 29.664062 24.222656 30.496094 24.710938 31.441406 24.710938 C 32.925781 24.710938 34.132812 23.5 34.132812 22.003906 C 34.132812 20.507812 32.925781 19.292969 31.441406 19.292969 C 31.207031 19.292969 30.976562 19.324219 30.761719 19.378906 L 25.902344 12.210938 C 26.152344 11.796875 26.296875 11.3125 26.296875 10.796875 C 26.296875 10.703125 26.292969 10.609375 26.285156 10.519531 Z M 20.035156 35.183594 C 19.585938 35.492188 19.289062 36.011719 19.289062 36.597656 C 19.289062 37.488281 19.960938 38.21875 20.820312 38.304688 C 20.878906 38.3125 20.933594 38.316406 20.992188 38.316406 C 21.933594 38.316406 22.699219 37.546875 22.699219 36.597656 C 22.699219 36.234375 22.585938 35.898438 22.394531 35.621094 L 23.957031 32.25 L 24.128906 32.257812 C 24.933594 32.257812 25.628906 31.757812 25.914062 31.050781 L 30.007812 31.03125 C 30.285156 31.707031 30.949219 32.179688 31.71875 32.179688 C 32.742188 32.179688 33.570312 31.34375 33.570312 30.316406 C 33.570312 29.289062 32.742188 28.453125 31.71875 28.453125 C 30.945312 28.453125 30.285156 28.929688 30.003906 29.605469 L 25.929688 29.625 C 25.652344 28.894531 24.953125 28.375 24.128906 28.375 C 23.492188 28.375 22.929688 28.6875 22.578125 29.164062 L 19.203125 27.304688 C 19.238281 27.144531 19.257812 26.976562 19.257812 26.808594 C 19.257812 26.078125 18.929688 25.425781 18.414062 24.992188 L 19.824219 21.480469 C 19.972656 21.5 20.121094 21.511719 20.273438 21.511719 C 22.199219 21.511719 23.757812 19.9375 23.757812 18 C 23.757812 16.0625 22.199219 14.492188 20.273438 14.492188 C 18.34375 14.492188 16.785156 16.0625 16.785156 18 C 16.785156 19.28125 17.464844 20.398438 18.480469 21.011719 L 17.101562 24.449219 L 16.90625 24.441406 C 15.609375 24.441406 14.554688 25.5 14.554688 26.808594 C 14.554688 28.113281 15.609375 29.171875 16.90625 29.171875 C 17.519531 29.171875 18.082031 28.933594 18.5 28.542969 L 22.21875 30.59375 C 22.277344 30.980469 22.445312 31.332031 22.691406 31.609375 L 21.167969 34.894531 L 20.992188 34.886719 C 20.636719 34.882812 20.308594 34.996094 20.035156 35.183594 Z M 23.597656 21.554688 C 24.273438 21.554688 24.921875 21.773438 25.453125 22.171875 L 27.730469 21.339844 C 27.808594 20.886719 27.96875 20.457031 28.203125 20.0625 L 24.429688 14.496094 C 24.160156 14.558594 23.886719 14.589844 23.605469 14.589844 L 23.3125 14.578125 C 24.246094 15.417969 24.835938 16.640625 24.835938 18 C 24.835938 19.453125 24.164062 20.75 23.117188 21.589844 C 23.273438 21.566406 23.433594 21.554688 23.597656 21.554688 Z M 20 39.804688 C 21.082031 39.804688 21.957031 40.683594 21.957031 41.773438 C 21.957031 42.863281 21.082031 43.742188 20 43.742188 C 18.917969 43.742188 18.042969 42.863281 18.042969 41.773438 C 18.042969 40.683594 18.917969 39.804688 20 39.804688 Z M 13.910156 36.816406 C 14.988281 36.816406 15.867188 37.699219 15.867188 38.789062 C 15.867188 39.875 14.988281 40.757812 13.910156 40.757812 C 12.828125 40.757812 11.949219 39.875 11.949219 38.789062 C 11.949219 37.699219 12.828125 36.816406 13.910156 36.816406 Z M 10.882812 29.984375 C 11.796875 29.984375 12.535156 30.726562 12.535156 31.644531 C 12.535156 32.5625 11.796875 33.304688 10.882812 33.304688 C 9.96875 33.304688 9.230469 32.5625 9.230469 31.644531 C 9.230469 30.726562 9.972656 29.984375 10.882812 29.984375 Z M 10.882812 29.984375 " fill-opacity="1" fill-rule="evenodd"/></g><g fill="#ffffff" fill-opacity="1"><g transform="translate(43.304774, 29.829971)"><g><path d="M 1.257812 -11.257812 L 1.257812 0 L 7.085938 0 L 7.085938 -2.25 L 3.511719 -2.25 L 3.511719 -11.257812 Z M 1.257812 -11.257812 "/></g></g></g><g fill="#ffffff" fill-opacity="1"><g transform="translate(50.198739, 29.829971)"><g><path d="M 7.085938 0 L 7.085938 -2.25 L 3.511719 -2.25 L 3.511719 -4.503906 L 6.472656 -4.503906 L 6.472656 -6.753906 L 3.511719 -6.753906 L 3.511719 -9.003906 L 6.894531 -9.003906 L 6.894531 -11.257812 L 1.257812 -11.257812 L 1.257812 0 Z M 7.085938 0 "/></g></g></g><g fill="#ffffff" fill-opacity="1"><g transform="translate(57.265846, 29.829971)"><g><path d="M 9.382812 -0.691406 L 9.382812 -5.636719 L 7.101562 -5.636719 L 7.101562 -2.25 C 6.894531 -2.21875 6.675781 -2.1875 6.472656 -2.1875 C 2.125 -2.1875 1.921875 -8.910156 6.472656 -9.070312 C 7.667969 -9.101562 8.390625 -8.847656 8.832031 -8.660156 L 9.101562 -10.941406 C 8.894531 -11.003906 7.808594 -11.398438 6.472656 -11.351562 C -1.339844 -11.066406 -0.960938 0.0625 6.472656 0.0625 C 7.542969 0.0625 8.515625 -0.203125 9.382812 -0.691406 Z M 9.382812 -0.691406 "/></g></g></g><g fill="#ffffff" fill-opacity="1"><g transform="translate(66.99304, 29.829971)"><g><path d="M 0.25 0 L 2.800781 0 L 3.242188 -1.210938 L 6.972656 -1.210938 L 7.429688 0 L 9.964844 0 L 5.226562 -11.667969 L 4.992188 -11.667969 Z M 4.0625 -3.320312 L 5.117188 -6.25 L 6.140625 -3.320312 Z M 4.0625 -3.320312 "/></g></g></g><g fill="#ffffff" fill-opacity="1"><g transform="translate(76.405432, 29.829971)"><g><path d="M 1.257812 -11.257812 L 1.257812 0 L 7.085938 0 L 7.085938 -2.25 L 3.511719 -2.25 L 3.511719 -11.257812 Z M 1.257812 -11.257812 "/></g></g></g><g fill="#ffffff" fill-opacity="1"><g transform="translate(83.299396, 29.829971)"><g><path d="M 6.421875 -6.488281 L 1.984375 -11.429688 L 1.257812 -11.429688 L 1.257812 0 L 3.542969 0 L 3.542969 -6.28125 L 6.421875 -3.257812 L 9.304688 -6.28125 L 9.289062 0 L 11.570312 0 L 11.570312 -11.429688 L 10.863281 -11.429688 Z M 6.421875 -6.488281 "/></g></g></g><g fill="#ffffff" fill-opacity="1"><g transform="translate(95.27744, 29.829971)"><g><path d="M 3.511719 0 L 3.511719 -11.257812 L 1.257812 -11.257812 L 1.257812 0 Z M 3.511719 0 "/></g></g></g><g fill="#ffffff" fill-opacity="1"><g transform="translate(99.196513, 29.829971)"><g><path d="M 3.511719 -6.125 L 9.210938 0.234375 L 9.808594 0.234375 L 9.808594 -11.242188 L 7.542969 -11.242188 L 7.542969 -4.878906 L 1.859375 -11.492188 L 1.257812 -11.492188 L 1.257812 0 L 3.511719 0 Z M 3.511719 -6.125 "/></g></g></g><g fill="#ffffff" fill-opacity="1"><g transform="translate(109.411652, 29.829971)"><g><path d="M 4.613281 -11.257812 L 1.257812 -11.257812 L 1.257812 0 L 4.613281 0 C 12.105469 0 12.105469 -11.257812 4.613281 -11.257812 Z M 4.613281 -9.003906 C 8.988281 -9.003906 8.988281 -2.25 4.613281 -2.25 L 3.511719 -2.25 L 3.511719 -9.003906 Z M 4.613281 -9.003906 "/></g></g></g><g fill="#ffffff" fill-opacity="1"><g transform="translate(43.653708, 36.629958)"><g><path d="M 0.546875 0 L 0.546875 -3.96875 L 2.828125 -3.96875 L 2.828125 -3.546875 L 1.046875 -3.546875 L 1.046875 -2.296875 L 2.546875 -2.296875 L 2.546875 -1.875 L 1.046875 -1.875 L 1.046875 -0.421875 L 2.890625 -0.421875 L 2.890625 0 Z M 0.546875 0 "/></g></g></g><g fill="#ffffff" fill-opacity="1"><g transform="translate(46.84013, 36.629958)"><g><path d="M 0.546875 0 L 0.546875 -3.96875 L 1.046875 -3.96875 L 1.046875 -0.421875 L 2.78125 -0.421875 L 2.78125 0 Z M 0.546875 0 "/></g></g></g><g fill="#ffffff" fill-opacity="1"><g transform="translate(49.778651, 36.629958)"><g><path d="M 0.546875 0 L 0.546875 -3.96875 L 2.828125 -3.96875 L 2.828125 -3.546875 L 1.046875 -3.546875 L 1.046875 -2.296875 L 2.546875 -2.296875 L 2.546875 -1.875 L 1.046875 -1.875 L 1.046875 -0.421875 L 2.890625 -0.421875 L 2.890625 0 Z M 0.546875 0 "/></g></g></g><g fill="#ffffff" fill-opacity="1"><g transform="translate(52.965072, 36.629958)"><g><path d="M 1.265625 0 L 0 -3.96875 L 0.53125 -3.96875 L 1.171875 -1.828125 C 1.242188 -1.585938 1.304688 -1.363281 1.359375 -1.15625 C 1.410156 -0.957031 1.476562 -0.742188 1.5625 -0.515625 L 1.578125 -0.515625 C 1.648438 -0.742188 1.710938 -0.957031 1.765625 -1.15625 C 1.828125 -1.363281 1.894531 -1.585938 1.96875 -1.828125 L 2.59375 -3.96875 L 3.109375 -3.96875 L 1.859375 0 Z M 1.265625 0 "/></g></g></g><g fill="#ffffff" fill-opacity="1"><g transform="translate(56.078938, 36.629958)"><g><path d="M 1.234375 -2.21875 L 1.046875 -1.609375 L 2.234375 -1.609375 L 2.046875 -2.21875 C 1.972656 -2.4375 1.898438 -2.65625 1.828125 -2.875 C 1.765625 -3.09375 1.703125 -3.320312 1.640625 -3.5625 L 1.625 -3.5625 C 1.5625 -3.320312 1.5 -3.09375 1.4375 -2.875 C 1.375 -2.65625 1.304688 -2.4375 1.234375 -2.21875 Z M 0.015625 0 L 1.359375 -3.96875 L 1.921875 -3.96875 L 3.265625 0 L 2.734375 0 L 2.359375 -1.203125 L 0.90625 -1.203125 L 0.53125 0 Z M 0.015625 0 "/></g></g></g><g fill="#ffffff" fill-opacity="1"><g transform="translate(59.368151, 36.629958)"><g><path d="M 1.359375 0 L 1.359375 -3.546875 L 0.171875 -3.546875 L 0.171875 -3.96875 L 3.078125 -3.96875 L 3.078125 -3.546875 L 1.875 -3.546875 L 1.875 0 Z M 1.359375 0 "/></g></g></g><g fill="#ffffff" fill-opacity="1"><g transform="translate(62.608992, 36.629958)"><g><path d="M 0.546875 0 L 0.546875 -3.96875 L 1.046875 -3.96875 L 1.046875 0 Z M 0.546875 0 "/></g></g></g><g fill="#ffffff" fill-opacity="1"><g transform="translate(64.199178, 36.629958)"><g><path d="M 0.546875 0 L 0.546875 -3.96875 L 1.0625 -3.96875 L 2.5 -1.46875 L 2.921875 -0.65625 L 2.953125 -0.65625 C 2.941406 -0.851562 2.925781 -1.0625 2.90625 -1.28125 C 2.894531 -1.5 2.890625 -1.710938 2.890625 -1.921875 L 2.890625 -3.96875 L 3.375 -3.96875 L 3.375 0 L 2.84375 0 L 1.40625 -2.5 L 0.984375 -3.3125 L 0.953125 -3.3125 C 0.972656 -3.113281 0.988281 -2.910156 1 -2.703125 C 1.007812 -2.492188 1.015625 -2.285156 1.015625 -2.078125 L 1.015625 0 Z M 0.546875 0 "/></g></g></g><g fill="#ffffff" fill-opacity="1"><g transform="translate(68.111159, 36.629958)"><g><path d="M 2.109375 0.078125 C 1.847656 0.078125 1.601562 0.03125 1.375 -0.0625 C 1.15625 -0.15625 0.96875 -0.289062 0.8125 -0.46875 C 0.65625 -0.644531 0.53125 -0.859375 0.4375 -1.109375 C 0.351562 -1.367188 0.3125 -1.660156 0.3125 -1.984375 C 0.3125 -2.304688 0.359375 -2.59375 0.453125 -2.84375 C 0.546875 -3.09375 0.671875 -3.304688 0.828125 -3.484375 C 0.984375 -3.660156 1.171875 -3.796875 1.390625 -3.890625 C 1.617188 -3.992188 1.867188 -4.046875 2.140625 -4.046875 C 2.273438 -4.046875 2.398438 -4.03125 2.515625 -4 C 2.628906 -3.96875 2.734375 -3.925781 2.828125 -3.875 C 2.921875 -3.832031 3.003906 -3.78125 3.078125 -3.71875 C 3.148438 -3.664062 3.21875 -3.609375 3.28125 -3.546875 L 3 -3.21875 C 2.894531 -3.320312 2.773438 -3.410156 2.640625 -3.484375 C 2.515625 -3.554688 2.347656 -3.59375 2.140625 -3.59375 C 1.941406 -3.59375 1.757812 -3.554688 1.59375 -3.484375 C 1.4375 -3.410156 1.300781 -3.300781 1.1875 -3.15625 C 1.070312 -3.019531 0.984375 -2.851562 0.921875 -2.65625 C 0.859375 -2.457031 0.828125 -2.238281 0.828125 -2 C 0.828125 -1.75 0.859375 -1.519531 0.921875 -1.3125 C 0.984375 -1.113281 1.066406 -0.941406 1.171875 -0.796875 C 1.285156 -0.660156 1.421875 -0.554688 1.578125 -0.484375 C 1.742188 -0.410156 1.9375 -0.375 2.15625 -0.375 C 2.289062 -0.375 2.421875 -0.394531 2.546875 -0.4375 C 2.679688 -0.476562 2.785156 -0.535156 2.859375 -0.609375 L 2.859375 -1.640625 L 2.03125 -1.640625 L 2.03125 -2.0625 L 3.328125 -2.0625 L 3.328125 -0.390625 C 3.191406 -0.253906 3.019531 -0.140625 2.8125 -0.046875 C 2.601562 0.0351562 2.367188 0.078125 2.109375 0.078125 Z M 2.109375 0.078125 "/></g></g></g><g fill="#ffffff" fill-opacity="1"><g transform="translate(71.841752, 36.629958)"><g/></g></g><g fill="#ffffff" fill-opacity="1"><g transform="translate(73.051021, 36.629958)"><g><path d="M 0.546875 0 L 0.546875 -3.96875 L 1.046875 -3.96875 L 1.046875 -0.421875 L 2.78125 -0.421875 L 2.78125 0 Z M 0.546875 0 "/></g></g></g><g fill="#ffffff" fill-opacity="1"><g transform="translate(75.989542, 36.629958)"><g><path d="M 0.546875 0 L 0.546875 -3.96875 L 2.828125 -3.96875 L 2.828125 -3.546875 L 1.046875 -3.546875 L 1.046875 -2.296875 L 2.546875 -2.296875 L 2.546875 -1.875 L 1.046875 -1.875 L 1.046875 -0.421875 L 2.890625 -0.421875 L 2.890625 0 Z M 0.546875 0 "/></g></g></g><g fill="#ffffff" fill-opacity="1"><g transform="translate(79.175963, 36.629958)"><g><path d="M 2.109375 0.078125 C 1.847656 0.078125 1.601562 0.03125 1.375 -0.0625 C 1.15625 -0.15625 0.96875 -0.289062 0.8125 -0.46875 C 0.65625 -0.644531 0.53125 -0.859375 0.4375 -1.109375 C 0.351562 -1.367188 0.3125 -1.660156 0.3125 -1.984375 C 0.3125 -2.304688 0.359375 -2.59375 0.453125 -2.84375 C 0.546875 -3.09375 0.671875 -3.304688 0.828125 -3.484375 C 0.984375 -3.660156 1.171875 -3.796875 1.390625 -3.890625 C 1.617188 -3.992188 1.867188 -4.046875 2.140625 -4.046875 C 2.273438 -4.046875 2.398438 -4.03125 2.515625 -4 C 2.628906 -3.96875 2.734375 -3.925781 2.828125 -3.875 C 2.921875 -3.832031 3.003906 -3.78125 3.078125 -3.71875 C 3.148438 -3.664062 3.21875 -3.609375 3.28125 -3.546875 L 3 -3.21875 C 2.894531 -3.320312 2.773438 -3.410156 2.640625 -3.484375 C 2.515625 -3.554688 2.347656 -3.59375 2.140625 -3.59375 C 1.941406 -3.59375 1.757812 -3.554688 1.59375 -3.484375 C 1.4375 -3.410156 1.300781 -3.300781 1.1875 -3.15625 C 1.070312 -3.019531 0.984375 -2.851562 0.921875 -2.65625 C 0.859375 -2.457031 0.828125 -2.238281 0.828125 -2 C 0.828125 -1.75 0.859375 -1.519531 0.921875 -1.3125 C 0.984375 -1.113281 1.066406 -0.941406 1.171875 -0.796875 C 1.285156 -0.660156 1.421875 -0.554688 1.578125 -0.484375 C 1.742188 -0.410156 1.9375 -0.375 2.15625 -0.375 C 2.289062 -0.375 2.421875 -0.394531 2.546875 -0.4375 C 2.679688 -0.476562 2.785156 -0.535156 2.859375 -0.609375 L 2.859375 -1.640625 L 2.03125 -1.640625 L 2.03125 -2.0625 L 3.328125 -2.0625 L 3.328125 -0.390625 C 3.191406 -0.253906 3.019531 -0.140625 2.8125 -0.046875 C 2.601562 0.0351562 2.367188 0.078125 2.109375 0.078125 Z M 2.109375 0.078125 "/></g></g></g><g fill="#ffffff" fill-opacity="1"><g transform="translate(82.906556, 36.629958)"><g><path d="M 1.234375 -2.21875 L 1.046875 -1.609375 L 2.234375 -1.609375 L 2.046875 -2.21875 C 1.972656 -2.4375 1.898438 -2.65625 1.828125 -2.875 C 1.765625 -3.09375 1.703125 -3.320312 1.640625 -3.5625 L 1.625 -3.5625 C 1.5625 -3.320312 1.5 -3.09375 1.4375 -2.875 C 1.375 -2.65625 1.304688 -2.4375 1.234375 -2.21875 Z M 0.015625 0 L 1.359375 -3.96875 L 1.921875 -3.96875 L 3.265625 0 L 2.734375 0 L 2.359375 -1.203125 L 0.90625 -1.203125 L 0.53125 0 Z M 0.015625 0 "/></g></g></g><g fill="#ffffff" fill-opacity="1"><g transform="translate(86.195768, 36.629958)"><g><path d="M 0.546875 0 L 0.546875 -3.96875 L 1.046875 -3.96875 L 1.046875 -0.421875 L 2.78125 -0.421875 L 2.78125 0 Z M 0.546875 0 "/></g></g></g><g fill="#ffffff" fill-opacity="1"><g transform="translate(89.134289, 36.629958)"><g/></g></g><g fill="#ffffff" fill-opacity="1"><g transform="translate(90.343558, 36.629958)"><g><path d="M 0.546875 0 L 0.546875 -3.96875 L 1.15625 -3.96875 L 1.90625 -1.84375 C 1.957031 -1.707031 2.003906 -1.570312 2.046875 -1.4375 C 2.097656 -1.300781 2.144531 -1.160156 2.1875 -1.015625 L 2.21875 -1.015625 C 2.269531 -1.160156 2.316406 -1.300781 2.359375 -1.4375 C 2.398438 -1.570312 2.441406 -1.707031 2.484375 -1.84375 L 3.234375 -3.96875 L 3.859375 -3.96875 L 3.859375 0 L 3.375 0 L 3.375 -2.1875 C 3.375 -2.363281 3.378906 -2.554688 3.390625 -2.765625 C 3.410156 -2.984375 3.429688 -3.179688 3.453125 -3.359375 L 3.421875 -3.359375 L 3.109375 -2.453125 L 2.359375 -0.40625 L 2.03125 -0.40625 L 1.28125 -2.453125 L 0.96875 -3.359375 L 0.9375 -3.359375 C 0.945312 -3.179688 0.957031 -2.984375 0.96875 -2.765625 C 0.988281 -2.554688 1 -2.363281 1 -2.1875 L 1 0 Z M 0.546875 0 "/></g></g></g><g fill="#ffffff" fill-opacity="1"><g transform="translate(94.739248, 36.629958)"><g><path d="M 0.546875 0 L 0.546875 -3.96875 L 1.046875 -3.96875 L 1.046875 0 Z M 0.546875 0 "/></g></g></g><g fill="#ffffff" fill-opacity="1"><g transform="translate(96.329434, 36.629958)"><g><path d="M 0.546875 0 L 0.546875 -3.96875 L 1.0625 -3.96875 L 2.5 -1.46875 L 2.921875 -0.65625 L 2.953125 -0.65625 C 2.941406 -0.851562 2.925781 -1.0625 2.90625 -1.28125 C 2.894531 -1.5 2.890625 -1.710938 2.890625 -1.921875 L 2.890625 -3.96875 L 3.375 -3.96875 L 3.375 0 L 2.84375 0 L 1.40625 -2.5 L 0.984375 -3.3125 L 0.953125 -3.3125 C 0.972656 -3.113281 0.988281 -2.910156 1 -2.703125 C 1.007812 -2.492188 1.015625 -2.285156 1.015625 -2.078125 L 1.015625 0 Z M 0.546875 0 "/></g></g></g><g fill="#ffffff" fill-opacity="1"><g transform="translate(100.241416, 36.629958)"><g><path d="M 0.546875 0 L 0.546875 -3.96875 L 1.53125 -3.96875 C 2.144531 -3.96875 2.609375 -3.796875 2.921875 -3.453125 C 3.242188 -3.117188 3.40625 -2.632812 3.40625 -2 C 3.40625 -1.6875 3.363281 -1.40625 3.28125 -1.15625 C 3.207031 -0.90625 3.09375 -0.691406 2.9375 -0.515625 C 2.78125 -0.347656 2.582031 -0.21875 2.34375 -0.125 C 2.113281 -0.0390625 1.851562 0 1.5625 0 Z M 1.046875 -0.40625 L 1.5 -0.40625 C 1.957031 -0.40625 2.300781 -0.546875 2.53125 -0.828125 C 2.769531 -1.109375 2.890625 -1.5 2.890625 -2 C 2.890625 -2.5 2.769531 -2.882812 2.53125 -3.15625 C 2.300781 -3.425781 1.957031 -3.5625 1.5 -3.5625 L 1.046875 -3.5625 Z M 1.046875 -0.40625 "/></g></g></g><g fill="#ffffff" fill-opacity="1"><g transform="translate(103.959917, 36.629958)"><g><path d="M 1.640625 0.078125 C 1.367188 0.078125 1.113281 0.0234375 0.875 -0.078125 C 0.632812 -0.179688 0.425781 -0.328125 0.25 -0.515625 L 0.5625 -0.859375 C 0.695312 -0.710938 0.859375 -0.59375 1.046875 -0.5 C 1.242188 -0.414062 1.445312 -0.375 1.65625 -0.375 C 1.914062 -0.375 2.117188 -0.429688 2.265625 -0.546875 C 2.410156 -0.660156 2.484375 -0.816406 2.484375 -1.015625 C 2.484375 -1.117188 2.460938 -1.203125 2.421875 -1.265625 C 2.390625 -1.335938 2.34375 -1.398438 2.28125 -1.453125 C 2.226562 -1.503906 2.160156 -1.550781 2.078125 -1.59375 C 1.992188 -1.632812 1.90625 -1.675781 1.8125 -1.71875 L 1.25 -1.96875 C 1.15625 -2.007812 1.0625 -2.054688 0.96875 -2.109375 C 0.875 -2.160156 0.785156 -2.226562 0.703125 -2.3125 C 0.628906 -2.394531 0.566406 -2.488281 0.515625 -2.59375 C 0.472656 -2.707031 0.453125 -2.835938 0.453125 -2.984375 C 0.453125 -3.128906 0.484375 -3.265625 0.546875 -3.390625 C 0.609375 -3.523438 0.691406 -3.640625 0.796875 -3.734375 C 0.910156 -3.828125 1.039062 -3.898438 1.1875 -3.953125 C 1.34375 -4.015625 1.507812 -4.046875 1.6875 -4.046875 C 1.925781 -4.046875 2.144531 -4 2.34375 -3.90625 C 2.550781 -3.8125 2.722656 -3.691406 2.859375 -3.546875 L 2.59375 -3.21875 C 2.46875 -3.332031 2.332031 -3.421875 2.1875 -3.484375 C 2.039062 -3.554688 1.875 -3.59375 1.6875 -3.59375 C 1.46875 -3.59375 1.289062 -3.539062 1.15625 -3.4375 C 1.019531 -3.34375 0.953125 -3.203125 0.953125 -3.015625 C 0.953125 -2.921875 0.96875 -2.835938 1 -2.765625 C 1.039062 -2.703125 1.09375 -2.644531 1.15625 -2.59375 C 1.226562 -2.539062 1.300781 -2.492188 1.375 -2.453125 C 1.457031 -2.421875 1.535156 -2.390625 1.609375 -2.359375 L 2.171875 -2.109375 C 2.285156 -2.066406 2.394531 -2.015625 2.5 -1.953125 C 2.601562 -1.890625 2.6875 -1.816406 2.75 -1.734375 C 2.820312 -1.648438 2.878906 -1.550781 2.921875 -1.4375 C 2.972656 -1.332031 3 -1.207031 3 -1.0625 C 3 -0.90625 2.96875 -0.753906 2.90625 -0.609375 C 2.84375 -0.472656 2.75 -0.351562 2.625 -0.25 C 2.507812 -0.15625 2.367188 -0.078125 2.203125 -0.015625 C 2.035156 0.046875 1.847656 0.078125 1.640625 0.078125 Z M 1.640625 0.078125 "/></g></g></g></svg>